<svg width="188" height="57" viewBox="0 0 188 57" fill="none" xmlns="http://www.w3.org/2000/svg">
    <path d="M43.1075 30.3412C42.2951 29.793 41.3263 29.5272 40.3492 29.5846H33.662V36.3186H40.2738C40.7871 36.3494 41.3012 36.2759 41.7855 36.1025C42.2698 35.9292 42.7143 35.6596 43.0924 35.3098C43.4246 34.9726 43.685 34.5711 43.8577 34.1297C44.0305 33.6883 44.112 33.2163 44.0972 32.7423C44.1357 32.2917 44.0659 31.8385 43.8937 31.4207C43.7214 31.0029 43.4518 30.6327 43.1075 30.3412Z" fill="#EFBC00"/>
    <path d="M43.3888 22.6084C43.4251 22.2238 43.3714 21.836 43.2318 21.4761C43.0922 21.1161 42.8707 20.7939 42.5849 20.5352C42.0423 20.1064 41.1631 19.8895 39.9372 19.8895H33.662V25.3222H40.2336C42.3404 25.3222 43.3922 24.4176 43.3888 22.6084Z" fill="#EFBC00"/>
    <path d="M52.5882 0H4.18515C3.07518 0 2.01067 0.442695 1.2258 1.2307C0.440934 2.0187 0 3.08746 0 4.20186L0 52.7981C0 53.9125 0.440934 54.9813 1.2258 55.7693C2.01067 56.5573 3.07518 57 4.18515 57H52.5882C53.6981 57 54.7626 56.5573 55.5475 55.7693C56.3324 54.9813 56.7733 53.9125 56.7733 52.7981V4.20186C56.7733 3.08746 56.3324 2.0187 55.5475 1.2307C54.7626 0.442695 53.6981 0 52.5882 0ZM46.8857 38.5784C45.3583 39.9235 43.0137 40.5961 39.8518 40.5961H28.6379V19.8794H17.2732C14.3189 19.8794 12.8401 20.8966 12.8368 22.9311C12.8347 23.2882 12.9175 23.6405 13.0783 23.959C13.2391 24.2775 13.4732 24.5528 13.7612 24.7622C14.5889 25.4762 15.6223 25.9057 16.7104 25.988C18.1363 26.0411 19.5584 26.169 20.971 26.3713C22.0894 26.5664 23.1752 26.9178 24.1965 27.4155C24.7535 27.662 25.2796 27.9735 25.764 28.3436C26.2489 28.6892 26.6676 29.1198 27 29.6148C27.3612 30.1728 27.6341 30.7837 27.8089 31.4257C28.0262 32.2636 28.1277 33.1275 28.1103 33.9932C28.1322 35.1076 27.873 36.2095 27.3567 37.1963C26.8669 38.1214 26.1809 38.9272 25.347 39.557C24.439 40.2255 23.4176 40.7228 22.3325 41.0249C21.149 41.369 19.9221 41.5389 18.69 41.5293C15.0592 41.5293 12.3294 40.8248 10.5005 39.4157C8.67174 38.0067 7.70375 35.9218 7.59657 33.1609H12.6208C12.6158 33.7545 12.7551 34.3403 13.0265 34.8677C13.2979 35.395 13.6932 35.848 14.1783 36.1874C15.2964 36.9724 16.6379 37.3724 18.0017 37.3274C19.6563 37.3274 20.909 37.0248 21.7597 36.4195C22.1626 36.1536 22.4912 35.7889 22.7146 35.3599C22.9379 34.9309 23.0485 34.4518 23.0359 33.968C23.0393 33.5927 22.9885 33.2189 22.8852 32.8582C22.7792 32.5026 22.5775 32.1831 22.3024 31.9351C21.9515 31.6126 21.5445 31.3578 21.1016 31.1835C20.4693 30.929 19.8151 30.7332 19.1472 30.5984C17.243 30.1949 15.5197 30.4219 14.123 30.0435C12.9004 29.7207 11.7393 29.1975 10.6864 28.495C9.82943 27.9397 9.13564 27.1648 8.67677 26.2503C8.21494 25.1947 7.99681 24.048 8.0387 22.8958C8.0311 21.8993 8.22244 20.9114 8.60141 19.9904C8.99394 19.0824 9.59683 18.2817 10.3599 17.6549C11.208 16.9471 12.1836 16.4094 13.2337 16.071C14.5332 15.659 15.8906 15.4614 17.2531 15.4858C18.5995 15.4858 31.8684 15.5615 35.4105 15.5766H40.9119C43.3637 15.5766 45.2294 16.1853 46.5089 17.4027C47.7884 18.62 48.4264 20.2863 48.4231 22.4015C48.4394 23.4299 48.1375 24.438 47.5589 25.2868C47.0306 26.0907 46.2722 26.715 45.3835 27.0775C45.9136 27.2761 46.4193 27.5351 46.8907 27.8493C47.363 28.1737 47.7703 28.5844 48.0915 29.0599C48.44 29.5854 48.7044 30.1624 48.8753 30.7699C49.0898 31.5361 49.1914 32.3298 49.1767 33.1256C49.2237 34.1484 49.0424 35.1689 48.646 36.1124C48.2496 37.0558 47.6482 37.8984 46.8857 38.5784Z" fill="#EFBC00"/>
    <path d="M77.8396 23.9349C76.6942 23.6225 75.6253 23.0765 74.6995 22.3308L75.8651 19.6725C76.7014 20.3127 77.6389 20.8072 78.6384 21.1353C79.7017 21.5048 80.8192 21.6924 81.9443 21.6902C83.3109 21.6902 84.3308 21.4716 85.0041 21.0345C85.3085 20.858 85.5616 20.6044 85.7379 20.299C85.9142 19.9936 86.0077 19.6472 86.0089 19.2942C86.0161 19.0484 85.9694 18.8039 85.8722 18.5782C85.775 18.3524 85.6296 18.1509 85.4462 17.9877C85.0302 17.6225 84.5424 17.3492 84.0143 17.1857C83.4365 16.989 82.6477 16.7721 81.6529 16.5249C80.4989 16.2619 79.3627 15.9249 78.2516 15.5161C77.392 15.183 76.6263 14.6445 76.0208 13.9473C75.3755 13.143 75.0465 12.1289 75.0964 11.0973C75.0877 10.1073 75.3747 9.13749 75.9203 8.31287C76.5467 7.41856 77.4199 6.72772 78.4324 6.32544C79.719 5.78622 81.1031 5.52167 82.497 5.54862C83.6141 5.54841 84.7266 5.69079 85.8079 5.97234C86.8042 6.21761 87.7532 6.62667 88.6165 7.18296L87.5363 9.84632C86.7486 9.37966 85.9042 9.01684 85.0242 8.76685C84.196 8.52713 83.3388 8.40322 82.4769 8.39862C81.1304 8.39862 80.1256 8.62561 79.4624 9.08464C79.1523 9.27374 78.8966 9.54061 78.7205 9.85901C78.5443 10.1774 78.4537 10.5364 78.4576 10.9006C78.4494 11.1443 78.4958 11.3868 78.5931 11.6103C78.6905 11.8337 78.8364 12.0324 79.0203 12.1919C79.4395 12.5502 79.9265 12.8196 80.4522 12.9838C81.0299 13.1755 81.8187 13.3975 82.8135 13.6446C83.9561 13.9015 85.0792 14.2386 86.1747 14.6535C87.0379 14.9856 87.8096 15.52 88.4256 16.2122C89.0774 17.0132 89.4088 18.0292 89.355 19.0622C89.3649 20.046 89.0777 21.0098 88.5311 21.8264C87.9016 22.7154 87.029 23.4022 86.019 23.8038C84.7195 24.3309 83.3252 24.5817 81.9242 24.5402C80.5404 24.542 79.1639 24.338 77.8396 23.9349Z" fill="white"/>
    <path d="M99.72 23.5163C99.3029 23.845 98.8246 24.0868 98.3132 24.2276C97.7459 24.3873 97.1591 24.4671 96.5698 24.4646C95.0257 24.4646 93.835 24.0594 92.9977 23.249C92.1603 22.4385 91.7399 21.2615 91.7366 19.718V12.9436H89.4305V10.3105H91.7366V7.09729H95.0224V10.3105H98.7755V12.9436H95.0224V19.6423C94.985 20.2088 95.1647 20.7683 95.5248 21.2061C95.7124 21.3951 95.9382 21.5415 96.1869 21.6355C96.4357 21.7295 96.7016 21.7688 96.9668 21.7508C97.624 21.7757 98.2703 21.5766 98.8006 21.1859L99.72 23.5163Z" fill="white"/>
    <path d="M111.361 11.5362C112.456 12.545 113.004 14.0432 113.004 16.0306V24.2779H109.904V22.568C109.484 23.1986 108.886 23.6888 108.186 23.9753C107.332 24.326 106.415 24.4976 105.493 24.4797C104.547 24.5001 103.608 24.316 102.74 23.94C102.001 23.617 101.368 23.0928 100.911 22.4267C100.482 21.784 100.258 21.026 100.268 20.2526C100.253 19.6733 100.372 19.0983 100.616 18.5731C100.86 18.0479 101.223 17.5868 101.674 17.2261C102.609 16.4644 104.086 16.081 106.096 16.081H109.723V15.8692C109.75 15.4497 109.684 15.0296 109.531 14.6382C109.379 14.2469 109.142 13.894 108.839 13.6043C108.098 13.0244 107.168 12.7421 106.231 12.8124C105.442 12.812 104.657 12.9362 103.905 13.1806C103.204 13.3914 102.55 13.7338 101.976 14.1895L100.69 11.7934C101.485 11.1989 102.385 10.7608 103.343 10.5021C104.409 10.1961 105.514 10.045 106.623 10.0532C108.69 10.0498 110.269 10.5441 111.361 11.5362ZM108.347 21.4986C108.974 21.1358 109.455 20.5625 109.703 19.8794V18.245H106.317C104.423 18.245 103.478 18.8655 103.478 20.1164C103.47 20.3938 103.531 20.6687 103.655 20.9169C103.778 21.165 103.961 21.3787 104.187 21.5389C104.772 21.9148 105.463 22.0916 106.156 22.0433C106.929 22.0685 107.693 21.88 108.367 21.4986H108.347Z" fill="white"/>
    <path d="M128.252 11.6018C129.321 12.6409 129.855 14.1777 129.855 16.2122V24.283H126.574V16.646C126.649 15.6421 126.338 14.6476 125.705 13.8666C125.385 13.5424 124.999 13.2909 124.573 13.1291C124.147 12.9673 123.692 12.8988 123.238 12.9284C122.712 12.9016 122.186 12.985 121.694 13.1735C121.202 13.362 120.754 13.6513 120.38 14.023C119.634 14.8864 119.257 16.0099 119.329 17.1504V24.278H116.059V10.2045H119.179V12.0255C119.728 11.3688 120.433 10.8607 121.229 10.5475C122.115 10.2009 123.06 10.0296 124.012 10.0431C124.786 10.0072 125.56 10.1265 126.288 10.3942C127.016 10.6618 127.684 11.0723 128.252 11.6018Z" fill="white"/>
    <path d="M146.736 4.72144V24.278H143.586V22.4621C143.053 23.1268 142.362 23.647 141.577 23.9753C140.74 24.3199 139.843 24.4914 138.939 24.4798C137.67 24.5009 136.416 24.1915 135.301 23.5819C134.244 22.9962 133.373 22.1218 132.789 21.0598C132.161 19.9 131.845 18.5963 131.87 17.2766C131.843 15.9615 132.16 14.6624 132.789 13.5085C133.376 12.4488 134.246 11.5751 135.301 10.9864C136.418 10.3806 137.67 10.0732 138.939 10.0936C139.811 10.0827 140.676 10.2438 141.486 10.5677C142.247 10.8739 142.921 11.3623 143.451 11.9902V4.72144H146.736ZM141.456 21.1052C142.093 20.7427 142.615 20.2078 142.963 19.5616C143.342 18.8483 143.532 18.0494 143.516 17.2413C143.532 16.4332 143.341 15.6344 142.963 14.9209C142.612 14.2844 142.09 13.76 141.456 13.4076C140.803 13.0536 140.073 12.8682 139.331 12.8682C138.589 12.8682 137.858 13.0536 137.206 13.4076C136.573 13.7613 136.051 14.2854 135.698 14.9209C135.32 15.6344 135.13 16.4332 135.146 17.2413C135.129 18.0494 135.319 18.8483 135.698 19.5616C136.048 20.2068 136.57 20.7414 137.206 21.1052C137.858 21.4592 138.589 21.6446 139.331 21.6446C140.073 21.6446 140.803 21.4592 141.456 21.1052Z" fill="white"/>
    <path d="M159.98 11.5363C161.069 12.5451 161.615 14.0432 161.618 16.0307V24.278H158.523V22.568C158.1 23.1976 157.5 23.6873 156.8 23.9754C155.948 24.3261 155.033 24.4977 154.112 24.4798C153.165 24.4996 152.224 24.3156 151.354 23.9401C150.616 23.6184 149.984 23.0938 149.53 22.4268C149.101 21.7841 148.877 21.026 148.887 20.2527C148.871 19.6732 148.989 19.0978 149.234 18.5724C149.478 18.047 149.841 17.5861 150.294 17.2262C151.228 16.4662 152.702 16.0845 154.715 16.0811H158.337V15.8693C158.365 15.4502 158.3 15.0301 158.148 14.6388C157.996 14.2474 157.761 13.8943 157.458 13.6044C156.715 13.0241 155.784 12.7419 154.846 12.8124C154.057 12.8115 153.274 12.9358 152.524 13.1807C151.823 13.3892 151.167 13.7318 150.595 14.1895L149.309 11.7935C150.103 11.2 151.001 10.7619 151.957 10.5022C153.023 10.1969 154.128 10.0457 155.237 10.0532C157.304 10.0499 158.885 10.5442 159.98 11.5363ZM156.966 21.4986C157.592 21.1353 158.07 20.562 158.317 19.8794V18.2451H154.931C153.042 18.2451 152.097 18.8655 152.097 20.1165C152.09 20.3939 152.15 20.6688 152.274 20.917C152.397 21.1651 152.58 21.3788 152.806 21.539C153.391 21.9155 154.082 22.0924 154.775 22.0434C155.548 22.0678 156.312 21.8794 156.986 21.4986H156.966Z" fill="white"/>
    <path d="M172.777 10.0482V13.1807C172.525 13.1332 172.269 13.1079 172.013 13.105C171.465 13.073 170.916 13.156 170.401 13.3488C169.886 13.5416 169.417 13.8399 169.024 14.2249C168.252 15.1151 167.864 16.276 167.944 17.4532V24.278H164.663V10.2046H167.808V12.2626C168.739 10.7864 170.395 10.0482 172.777 10.0482Z" fill="white"/>
    <path d="M188 4.72144V24.278H184.85V22.4621C184.317 23.1279 183.626 23.6484 182.84 23.9753C182.004 24.3208 181.107 24.4924 180.203 24.4798C178.935 24.5002 177.683 24.1909 176.57 23.5819C175.51 22.9991 174.638 22.124 174.058 21.0598C173.43 19.9 173.113 18.5963 173.138 17.2766C173.112 15.9615 173.429 14.6624 174.058 13.5085C174.641 12.4467 175.512 11.5723 176.57 10.9864C177.685 10.3813 178.935 10.0738 180.203 10.0936C181.074 10.0818 181.94 10.243 182.75 10.5677C183.511 10.8747 184.187 11.3628 184.719 11.9902V4.72144H188ZM182.725 21.1052C183.36 20.7414 183.882 20.2068 184.232 19.5616C184.611 18.8483 184.801 18.0494 184.785 17.2413C184.8 16.4332 184.61 15.6344 184.232 14.9209C183.88 14.2854 183.358 13.7613 182.725 13.4076C182.072 13.0536 181.341 12.8682 180.599 12.8682C179.857 12.8682 179.127 13.0536 178.474 13.4076C177.84 13.76 177.318 14.2844 176.967 14.9209C176.589 15.6344 176.398 16.4332 176.414 17.2413C176.398 18.0494 176.588 18.8483 176.967 19.5616C177.315 20.2078 177.838 20.7427 178.474 21.1052C179.127 21.4592 179.857 21.6446 180.599 21.6446C181.341 21.6446 182.072 21.4592 182.725 21.1052Z" fill="white"/>
    <path d="M91.6863 44.0918C92.3003 44.9361 92.6152 45.9625 92.5806 47.0074C92.612 47.7304 92.4597 48.4496 92.138 49.0973C91.8163 49.745 91.3358 50.2999 90.7418 50.7098C89.5326 51.5775 87.7557 52.0129 85.4111 52.0163H76.252V33.5645H84.8584C87.0289 33.5645 88.7036 33.9899 89.8826 34.8406C90.4486 35.2329 90.9068 35.7621 91.2151 36.3792C91.5233 36.9964 91.6716 37.6817 91.6461 38.3716C91.662 39.2235 91.4429 40.0632 91.0131 40.7979C90.5972 41.4934 89.9971 42.0592 89.2797 42.4322C90.2326 42.7243 91.0728 43.3037 91.6863 44.0918ZM79.6634 36.253V41.3629H84.4917C85.4494 41.4232 86.4036 41.1986 87.2349 40.7172C87.5445 40.515 87.7961 40.2349 87.9644 39.9048C88.1328 39.5747 88.2121 39.2061 88.1945 38.8357C88.2144 38.4607 88.1363 38.087 87.968 37.7516C87.7997 37.4163 87.547 37.1309 87.2349 36.9239C86.4028 36.4447 85.4492 36.2203 84.4917 36.2783L79.6634 36.253ZM89.1391 46.6644C89.1391 44.8888 87.8177 44.001 85.175 44.001H79.6484V49.3277H85.175C87.8177 49.3277 89.1391 48.4399 89.1391 46.6644Z" fill="white"/>
    <path d="M94.9118 35.0525C94.7217 34.8707 94.5703 34.6519 94.4668 34.4096C94.3634 34.1672 94.3101 33.9063 94.3101 33.6427C94.3101 33.379 94.3634 33.1181 94.4668 32.8757C94.5703 32.6334 94.7217 32.4146 94.9118 32.2328C95.3205 31.8525 95.8622 31.6495 96.4191 31.6678C96.9716 31.6484 97.5107 31.8415 97.9263 32.2076C98.1203 32.375 98.275 32.5836 98.3793 32.8182C98.4835 33.0528 98.5347 33.3076 98.5292 33.5645C98.5359 33.8357 98.4872 34.1054 98.3861 34.3569C98.285 34.6085 98.1336 34.8367 97.9414 35.0273C97.7431 35.2234 97.5073 35.3772 97.2483 35.4795C96.9893 35.5818 96.7124 35.6304 96.4342 35.6225C96.1555 35.6327 95.8777 35.5875 95.6165 35.4897C95.3552 35.3919 95.1158 35.2434 94.9118 35.0525ZM94.7561 37.9378H98.0369V52.0163H94.7561V37.9378Z" fill="white"/>
    <path d="M109.613 51.2496C109.2 51.583 108.723 51.8254 108.211 51.9608C107.642 52.1203 107.053 52.2001 106.463 52.1979C104.925 52.1979 103.736 51.7944 102.895 50.9873C102.056 50.1802 101.634 48.9999 101.634 47.4563V40.6819H99.3232V38.0437H101.634V34.8306H104.915V38.0437H108.668V40.6819H104.915V47.3756C104.877 47.9437 105.057 48.5048 105.418 48.9444C105.607 49.1315 105.834 49.2764 106.084 49.3694C106.333 49.4624 106.599 49.5015 106.864 49.4841C107.521 49.5143 108.168 49.3185 108.698 48.9292L109.613 51.2496Z" fill="white"/>
    <path d="M121.535 42.2204C122.145 42.7146 122.631 43.3451 122.954 44.0615C123.278 44.778 123.43 45.5605 123.399 46.3466C123.414 47.4118 123.132 48.4601 122.585 49.3731C121.997 50.3089 121.148 51.0508 120.143 51.5068C118.88 52.0722 117.506 52.343 116.124 52.2988C114.835 52.3015 113.553 52.1094 112.321 51.7288C111.199 51.4073 110.147 50.8768 109.221 50.1651L110.663 47.5017C111.396 48.089 112.228 48.54 113.119 48.8334C114.07 49.1626 115.068 49.333 116.074 49.3378C117.078 49.3954 118.076 49.1323 118.922 48.5862C119.251 48.3393 119.516 48.0174 119.696 47.6472C119.877 47.2769 119.966 46.869 119.959 46.457C119.951 46.0451 119.845 45.6409 119.651 45.2779C119.457 44.9148 119.18 44.6034 118.842 44.3692C118.098 43.89 116.832 43.6479 115.024 43.6479H110.587L111.537 33.5645H122.324V36.4397H114.421L114.049 40.7071H115.807C118.383 40.7071 120.292 41.2115 121.535 42.2204Z" fill="#EFBC00"/>
    <path d="M127.941 51.1588C126.736 50.3551 125.788 49.2204 125.208 47.8901C124.506 46.2843 124.163 44.5436 124.203 42.7904C124.163 41.0372 124.506 39.2965 125.208 37.6906C125.788 36.3603 126.736 35.2256 127.941 34.422C129.113 33.6659 130.482 33.2729 131.875 33.2921C133.273 33.2713 134.647 33.6604 135.829 34.4119C137.037 35.2141 137.99 36.3489 138.572 37.6805C139.274 39.2864 139.617 41.0271 139.577 42.7803C139.617 44.5335 139.274 46.2742 138.572 47.88C137.99 49.2116 137.037 50.3465 135.829 51.1487C134.647 51.9002 133.273 52.2893 131.875 52.2685C130.484 52.2937 129.116 51.9078 127.941 51.1588ZM134.975 47.6631C135.762 46.5736 136.155 44.9493 136.155 42.7904C136.155 40.6314 135.774 39.0055 135.01 37.9126C134.664 37.409 134.201 36.9974 133.662 36.713C133.122 36.4286 132.522 36.28 131.913 36.28C131.303 36.28 130.703 36.4286 130.163 36.713C129.624 36.9974 129.161 37.409 128.815 37.9126C128.058 39.0021 127.678 40.6281 127.675 42.7904C127.671 44.9527 128.052 46.5769 128.815 47.6631C129.161 48.1667 129.624 48.5783 130.163 48.8627C130.703 49.1471 131.303 49.2957 131.913 49.2957C132.522 49.2957 133.122 49.1471 133.662 48.8627C134.201 48.5783 134.664 48.1667 135.01 47.6631H134.975Z" fill="#EFBC00"/>
    <path d="M144.45 51.1588C143.248 50.3544 142.301 49.2197 141.722 47.8901C141.018 46.285 140.675 44.5438 140.717 42.7904C140.675 41.037 141.018 39.2957 141.722 37.6906C142.301 36.361 143.248 35.2264 144.45 34.422C145.637 33.6904 147.002 33.3031 148.394 33.3031C149.787 33.3031 151.152 33.6904 152.338 34.422C153.549 35.2216 154.502 36.3572 155.082 37.6906C155.783 39.2965 156.126 41.0372 156.086 42.7904C156.126 44.5436 155.783 46.2843 155.082 47.8901C154.502 49.2235 153.549 50.3592 152.338 51.1588C151.152 51.8903 149.787 52.2776 148.394 52.2776C147.002 52.2776 145.637 51.8903 144.45 51.1588ZM151.484 47.6631C152.241 46.5735 152.621 44.9493 152.625 42.7904C152.628 40.6314 152.248 39.0055 151.484 37.9126C151.138 37.409 150.676 36.9973 150.136 36.713C149.596 36.4286 148.996 36.28 148.387 36.28C147.777 36.28 147.177 36.4286 146.638 36.713C146.098 36.9973 145.635 37.409 145.289 37.9126C144.526 39.0021 144.149 40.6264 144.149 42.7904C144.149 44.9543 144.526 46.5735 145.289 47.6631C145.635 48.1667 146.098 48.5783 146.638 48.8627C147.177 49.1471 147.777 49.2956 148.387 49.2956C148.996 49.2956 149.596 49.1471 150.136 48.8627C150.676 48.5783 151.138 48.1667 151.484 47.6631Z" fill="#EFBC00"/>
</svg>
